<svg width="20" height="20" viewBox="0 0 20 20" fill="none" xmlns="http://www.w3.org/2000/svg">
<path d="M11.3281 19.125L8.67188 19.0625C8.67188 19.0312 8.73438 15.5469 8.3125 11.875C7.5625 5.5 5.96875 4.25 5.51562 4.01562C5.29688 3.90625 5.0625 3.85938 4.82812 3.85938C4 3.85938 3.3125 4.53125 3.3125 5.375C3.3125 6.20312 3.98437 6.89062 4.82812 6.89062C4.96875 6.89062 5.09375 6.875 5.23438 6.84375L5.9375 9.40625C5.57812 9.5 5.20312 9.54688 4.84375 9.54688C2.54688 9.54688 0.671875 7.67188 0.671875 5.375C0.671875 3.07813 2.54688 1.20312 4.84375 1.20312C5.5 1.20312 6.14062 1.35938 6.71875 1.64063C8.92188 2.73438 10.3125 5.98438 10.9687 11.5938C11.3906 15.4531 11.3281 18.9844 11.3281 19.125Z" fill="#FCC21B"/>
<path d="M8.67187 19.125C8.67187 18.9688 8.59374 15.4375 9.04687 11.5938C9.70312 5.98438 11.1094 2.73438 13.3125 1.64063C13.8906 1.35938 14.5312 1.20312 15.1719 1.20312C17.4687 1.20312 19.3437 3.07813 19.3437 5.375C19.3437 7.67188 17.4844 9.53125 15.1875 9.53125C14.8125 9.53125 14.4375 9.48438 14.0937 9.39062L14.7969 6.82812C14.9219 6.85938 15.0625 6.875 15.2031 6.875C16.0312 6.875 16.7187 6.20312 16.7187 5.35938C16.7187 4.53125 16.0469 3.84375 15.2031 3.84375C14.9687 3.84375 14.7344 3.89063 14.5312 4C14.0625 4.23438 12.4687 5.48438 11.7187 11.8906C11.2812 15.5625 11.3594 19.0156 11.3594 19.0625L8.67187 19.125Z" fill="#FCC21B"/>
</svg>
