<svg width="30" height="30" viewBox="0 0 30 30" fill="none" xmlns="http://www.w3.org/2000/svg">
<path d="M16.9922 28.6875L13.0078 28.5937C13.0078 28.5469 13.1016 23.3203 12.4688 17.8125C11.3438 8.25 8.95312 6.375 8.27344 6.02344C7.94531 5.85937 7.59375 5.78906 7.24219 5.78906C6 5.78906 4.96875 6.79688 4.96875 8.0625C4.96875 9.30469 5.97656 10.3359 7.24219 10.3359C7.45312 10.3359 7.64062 10.3125 7.85156 10.2656L8.90625 14.1094C8.36719 14.25 7.80469 14.3203 7.26562 14.3203C3.82031 14.3203 1.00781 11.5078 1.00781 8.0625C1.00781 4.61719 3.82031 1.80469 7.26562 1.80469C8.25 1.80469 9.21094 2.03906 10.0781 2.46094C13.3828 4.10156 15.4687 8.97656 16.4531 17.3906C17.0859 23.1797 16.9922 28.4766 16.9922 28.6875Z" fill="white"/>
<path d="M13.0078 28.6875C13.0078 28.4531 12.8906 23.1562 13.5703 17.3906C14.5547 8.97656 16.6641 4.10156 19.9687 2.46094C20.8359 2.03906 21.7969 1.80469 22.7578 1.80469C26.2031 1.80469 29.0156 4.61719 29.0156 8.0625C29.0156 11.5078 26.2266 14.2969 22.7812 14.2969C22.2187 14.2969 21.6562 14.2266 21.1406 14.0859L22.1953 10.2422C22.3828 10.2891 22.5937 10.3125 22.8047 10.3125C24.0469 10.3125 25.0781 9.30469 25.0781 8.03906C25.0781 6.79687 24.0703 5.76562 22.8047 5.76562C22.4531 5.76562 22.1016 5.83594 21.7969 6C21.0937 6.35156 18.7031 8.22656 17.5781 17.8359C16.9219 23.3437 17.0391 28.5234 17.0391 28.5937L13.0078 28.6875Z" fill="white"/>
</svg>
