<svg width="30" height="30" viewBox="0 0 30 30" fill="none" xmlns="http://www.w3.org/2000/svg">
<path d="M29.0133 18.2977C29.0133 14.7023 26.0883 11.7773 22.493 11.7773C18.8977 11.7773 15.975 14.7023 15.975 18.2977C15.975 20.55 17.1234 22.5398 18.8648 23.7117C17.625 24.0422 16.3008 24.2273 15.0023 24.2273C9.49688 24.2273 4.92187 22.0148 4.875 21.9937L3.03516 25.725C3.25547 25.8328 8.49141 28.3875 15 28.3875C21.8883 28.3852 29.0109 24.6117 29.0133 18.2977ZM22.493 15.9375C23.7938 15.9375 24.8531 16.9945 24.8531 18.2977V18.3C24.8508 19.6008 23.7938 20.6578 22.493 20.6578C21.1922 20.6578 20.1328 19.6008 20.1328 18.2977C20.1328 16.9969 21.1898 15.9375 22.493 15.9375Z" fill="white"/>
<path d="M7.50933 20.4024C11.1046 20.4024 14.0273 17.4774 14.0273 13.8821C14.0273 11.6297 12.8765 9.64224 11.1351 8.46802C12.375 8.13521 13.6968 7.95239 14.9976 7.95239C20.5031 7.95239 25.0781 10.1625 25.125 10.186L26.9671 6.45708C26.7492 6.34692 21.5085 3.79224 15 3.79224C8.11402 3.79224 0.991359 7.56567 0.989015 13.8797C0.986671 17.4774 3.91402 20.4024 7.50933 20.4024ZM7.50933 16.2422C6.20855 16.2422 5.14683 15.1829 5.14683 13.8821V13.8797C5.14917 12.579 6.2062 11.5219 7.50933 11.5219C8.81011 11.5219 9.86948 12.579 9.86948 13.8821C9.86948 15.1829 8.81011 16.2422 7.50933 16.2422Z" fill="white"/>
</svg>
