<svg width="20" height="20" viewBox="0 0 20 20" fill="none" xmlns="http://www.w3.org/2000/svg">
<path d="M19.3422 12.1984C19.3422 9.80156 17.3922 7.85156 14.9953 7.85156C12.5984 7.85156 10.65 9.80156 10.65 12.1984C10.65 13.7 11.4156 15.0266 12.5766 15.8078C11.75 16.0281 10.8672 16.1516 10.0016 16.1516C6.33125 16.1516 3.28125 14.6766 3.25 14.6625L2.02344 17.15C2.17031 17.2219 5.66094 18.925 10 18.925C14.5922 18.9234 19.3406 16.4078 19.3422 12.1984ZM14.9953 10.625C15.8625 10.625 16.5688 11.3297 16.5688 12.1984V12.2C16.5672 13.0672 15.8625 13.7719 14.9953 13.7719C14.1281 13.7719 13.4219 13.0672 13.4219 12.1984C13.4219 11.3312 14.1266 10.625 14.9953 10.625Z" fill="#FCC21B"/>
<path d="M5.00625 13.6016C7.40313 13.6016 9.35157 11.6516 9.35157 9.2547C9.35157 7.75314 8.58438 6.42814 7.42344 5.64532C8.25 5.42345 9.13125 5.30157 9.99844 5.30157C13.6688 5.30157 16.7188 6.77501 16.75 6.79064L17.9781 4.3047C17.8328 4.23126 14.3391 2.52814 10 2.52814C5.40938 2.52814 0.660941 5.04376 0.659379 9.25314C0.657816 11.6516 2.60938 13.6016 5.00625 13.6016ZM5.00625 10.8281C4.13907 10.8281 3.43125 10.1219 3.43125 9.2547V9.25314C3.43282 8.38595 4.1375 7.68126 5.00625 7.68126C5.87344 7.68126 6.57969 8.38595 6.57969 9.2547C6.57969 10.1219 5.87344 10.8281 5.00625 10.8281Z" fill="#FCC21B"/>
</svg>
