<svg width="20" height="20" viewBox="0 0 20 20" fill="none" xmlns="http://www.w3.org/2000/svg">
<path d="M14.3562 8.10154C13.6406 8.10154 12.9672 8.27029 12.3641 8.56404V5.90935C12.3641 3.35623 10.2875 1.27966 7.73437 1.27966C6.42499 1.27966 5.24218 1.82966 4.39999 2.70623C3.55624 1.82966 2.37499 1.27966 1.06406 1.27966V3.86716C2.19062 3.86716 3.10624 4.78279 3.10624 5.90935V12.6828H5.69531V5.90935C5.69531 4.78279 6.61093 3.86716 7.73593 3.86716C8.86249 3.86716 9.77812 4.78279 9.77812 5.90935V14.4015C9.77812 15.5281 8.86249 16.4437 7.73593 16.4437V19.0328C9.52812 19.0328 11.0828 18.0078 11.8516 16.5125C12.5719 16.9859 13.4328 17.2656 14.3578 17.2656C16.8844 17.2656 18.9391 15.2109 18.9391 12.6844C18.9375 10.1578 16.8828 8.10154 14.3562 8.10154ZM14.3562 14.6765C13.2578 14.6765 12.3641 13.7828 12.3641 12.6828C12.3641 11.5828 13.2578 10.689 14.3562 10.689C15.4547 10.689 16.3484 11.5828 16.3484 12.6828C16.3484 13.7828 15.4547 14.6765 14.3562 14.6765Z" fill="#FCC21B"/>
</svg>
