<svg width="30" height="30" viewBox="0 0 30 30" fill="none" xmlns="http://www.w3.org/2000/svg">
<path d="M21.5344 12.1522C20.4609 12.1522 19.4508 12.4054 18.5461 12.846V8.86397C18.5461 5.03428 15.4313 1.91943 11.6016 1.91943C9.63751 1.91943 7.86329 2.74443 6.60001 4.05928C5.33438 2.74443 3.56251 1.91943 1.5961 1.91943V5.80068C3.28594 5.80068 4.65938 7.17412 4.65938 8.86397V19.0241H8.54297V8.86397C8.54297 7.17412 9.91641 5.80068 11.6039 5.80068C13.2938 5.80068 14.6672 7.17412 14.6672 8.86397V21.6022C14.6672 23.2921 13.2938 24.6655 11.6039 24.6655V28.5491C14.2922 28.5491 16.6242 27.0116 17.7773 24.7687C18.8578 25.4788 20.1492 25.8983 21.5367 25.8983C25.3266 25.8983 28.4086 22.8163 28.4086 19.0265C28.4063 15.2366 25.3242 12.1522 21.5344 12.1522ZM21.5344 22.0147C19.8867 22.0147 18.5461 20.6741 18.5461 19.0241C18.5461 17.3741 19.8867 16.0335 21.5344 16.0335C23.182 16.0335 24.5227 17.3741 24.5227 19.0241C24.5227 20.6741 23.182 22.0147 21.5344 22.0147Z" fill="white"/>
</svg>
