<svg width="20" height="20" viewBox="0 0 20 20" fill="none" xmlns="http://www.w3.org/2000/svg">
<path d="M17.1953 16.6719C16.9591 16.8314 16.6804 16.9163 16.3953 16.9156C15.5109 16.9156 15.0266 16.0984 14.9516 15.3391C14.8781 14.6125 14.9437 12.7141 15.7125 10.7391C16.4375 8.87814 16.7344 7.53751 16.7344 6.11564C16.7344 2.69689 14.3469 0.309387 10.9281 0.309387C7.72656 0.309387 5.12187 2.91407 5.12187 6.09689C5.12031 6.23282 5.12499 7.09064 5.43906 8.20782C3.12812 8.22032 1.25156 10.1031 1.25156 12.4156C1.25156 14.7375 3.13906 16.6266 5.46093 16.6266C7.78281 16.6266 9.67031 14.7375 9.67031 12.4156C9.67031 11.1906 9.31562 9.94064 8.61874 8.69845C7.90312 7.42657 7.89531 6.13595 7.89531 6.11407C7.89531 4.4422 9.25624 3.08126 10.9281 3.08126C12.3937 3.08126 13.9609 3.87657 13.9609 6.11407C13.9609 7.1797 13.7266 8.19532 13.1297 9.73126C12.1703 12.1922 12.0906 14.5875 12.1922 15.6156C12.4297 17.975 14.1969 19.6875 16.3953 19.6875C17.2375 19.6875 18.05 19.4391 18.7453 18.9703L17.1953 16.6719ZM5.46249 13.8547C4.67187 13.8547 4.02656 13.2109 4.02656 12.4172C4.02656 11.6266 4.67031 10.9813 5.46249 10.9813C6.25312 10.9813 6.89843 11.625 6.89843 12.4172C6.89843 13.2094 6.25312 13.8547 5.46249 13.8547Z" fill="#FCC21B"/>
</svg>
