<svg width="28" height="30" viewBox="0 0 28 30" fill="none" xmlns="http://www.w3.org/2000/svg">
<path d="M24.793 25.0079C24.4386 25.2471 24.0206 25.3745 23.593 25.3735C22.2664 25.3735 21.5398 24.1477 21.4273 23.0086C21.3172 21.9188 21.4156 19.0711 22.5688 16.1086C23.6563 13.3172 24.1016 11.3063 24.1016 9.17349C24.1016 4.04536 20.5203 0.464111 15.3922 0.464111C10.5898 0.464111 6.68282 4.37114 6.68282 9.14536C6.68047 9.34927 6.68751 10.636 7.1586 12.3118C3.69219 12.3305 0.87735 15.1547 0.87735 18.6235C0.87735 22.1063 3.7086 24.9399 7.19141 24.9399C10.6742 24.9399 13.5055 22.1063 13.5055 18.6235C13.5055 16.786 12.9734 14.911 11.9281 13.0477C10.8547 11.1399 10.843 9.20396 10.843 9.17114C10.843 6.66333 12.8844 4.62192 15.3922 4.62192C17.5906 4.62192 19.9414 5.81489 19.9414 9.17114C19.9414 10.7696 19.5898 12.293 18.6945 14.5969C17.2555 18.2883 17.1359 21.8813 17.2883 23.4235C17.6445 26.9625 20.2953 29.5313 23.593 29.5313C24.8563 29.5313 26.075 29.1586 27.118 28.4555L24.793 25.0079ZM7.19376 20.7821C6.00782 20.7821 5.03985 19.8165 5.03985 18.6258C5.03985 17.4399 6.00547 16.4719 7.19376 16.4719C8.37969 16.4719 9.34766 17.4375 9.34766 18.6258C9.34766 19.8141 8.37969 20.7821 7.19376 20.7821Z" fill="white"/>
</svg>
