<svg width="30" height="30" viewBox="0 0 30 30" fill="none" xmlns="http://www.w3.org/2000/svg">
<path d="M23.4023 18.1337C24.6211 16.4251 25.3313 14.3485 25.3313 12.1478C25.3313 6.45244 20.6953 1.81885 15 1.81885C9.30235 1.81885 4.66876 6.45244 4.66876 12.1501C4.66876 14.3509 5.37891 16.4274 6.59766 18.136H3.23672V22.2962H13.0031V17.9837C10.5469 17.1376 8.82891 14.7938 8.82891 12.1478C8.82891 8.74697 11.5969 5.97666 15 5.97666C18.4031 5.97666 21.1711 8.74463 21.1711 12.1478C21.1711 14.7938 19.4531 17.1353 16.9969 17.979V22.2915H26.7633V18.1337H23.4023ZM13.0031 24.0235H3.23672V28.1813H26.7633V24.0235H16.9969H13.0031Z" fill="white"/>
</svg>
