<svg width="20" height="20" viewBox="0 0 20 20" fill="none" xmlns="http://www.w3.org/2000/svg">
<path d="M15.6016 12.0891C16.4141 10.95 16.8875 9.56565 16.8875 8.09846C16.8875 4.30159 13.7969 1.21252 9.99999 1.21252C6.20156 1.21252 3.11249 4.30159 3.11249 8.10002C3.11249 9.56721 3.58593 10.9516 4.39843 12.0906H2.15781V14.8641H8.66874V11.9891C7.03124 11.425 5.88593 9.86252 5.88593 8.09846C5.88593 5.83127 7.73124 3.9844 9.99999 3.9844C12.2687 3.9844 14.1141 5.82971 14.1141 8.09846C14.1141 9.86252 12.9687 11.4235 11.3312 11.986V14.861H17.8422V12.0891H15.6016ZM8.66874 16.0156H2.15781V18.7875H17.8422V16.0156H11.3312H8.66874Z" fill="#FCC21B"/>
</svg>
