<svg width="30" height="30" viewBox="0 0 30 30" fill="none" xmlns="http://www.w3.org/2000/svg">
<path d="M27.2203 13.2445H22.4883C22.8937 8.04844 24.6937 3.85078 25.4437 2.29688H20.8898C19.8937 4.73203 18.6281 8.63203 18.3188 13.2445H11.4844C11.175 8.63203 9.90703 4.73203 8.91328 2.29688H4.35937C5.10937 3.85547 6.90937 8.05078 7.31484 13.2445H2.77969V17.4047H7.31484C6.90937 22.5984 5.10937 26.7961 4.35937 28.3523H8.91328C9.90937 25.9172 11.175 22.0195 11.4844 17.4047H18.3188C18.6281 22.0172 19.8961 25.9172 20.8898 28.3523H25.4437C24.6937 26.7961 22.8937 22.6008 22.4883 17.4047H27.2203V13.2445Z" fill="white"/>
</svg>
