<svg width="20" height="20" viewBox="0 0 20 20" fill="none" xmlns="http://www.w3.org/2000/svg">
<path d="M18.1469 8.82969H14.9922C15.2625 5.36562 16.4625 2.56719 16.9625 1.53125H13.9266C13.2625 3.15469 12.4187 5.75469 12.2125 8.82969H7.65624C7.44999 5.75469 6.60468 3.15469 5.94218 1.53125H2.90624C3.40624 2.57031 4.60624 5.36719 4.87656 8.82969H1.85312V11.6031H4.87656C4.60624 15.0656 3.40624 17.8641 2.90624 18.9016H5.94218C6.60624 17.2781 7.44999 14.6797 7.65624 11.6031H12.2125C12.4187 14.6781 13.2641 17.2781 13.9266 18.9016H16.9625C16.4625 17.8641 15.2625 15.0672 14.9922 11.6031H18.1469V8.82969Z" fill="#FCC21B"/>
</svg>
