<svg width="30" height="30" viewBox="0 0 30 30" fill="none" xmlns="http://www.w3.org/2000/svg">
<path d="M29.2969 22.7673L23.3086 16.7767V20.6884H21.7687C20.8219 20.6884 20.0508 19.9173 20.0508 18.9704V7.12041C20.0508 3.88135 17.4141 1.24463 14.175 1.24463C12.7289 1.24463 11.4023 1.77432 10.3781 2.64385C9.35156 1.77197 8.02969 1.24463 6.58125 1.24463C3.33984 1.24463 0.703125 3.88135 0.703125 7.12041V19.7837H4.86328V7.12041C4.86328 6.17353 5.63438 5.40244 6.58125 5.40244C7.52813 5.40244 8.29922 6.17353 8.29922 7.12041V19.7837H12.4594V7.12041C12.4594 6.17353 13.2305 5.40244 14.1773 5.40244C15.1242 5.40244 15.8953 6.17353 15.8953 7.12041V18.9681C15.8953 22.2095 18.532 24.8462 21.7711 24.8462H23.3109V28.7556L29.2969 22.7673Z" fill="white"/>
</svg>
