<svg width="20" height="20" viewBox="0 0 20 20" fill="none" xmlns="http://www.w3.org/2000/svg">
<path d="M19.5312 15.1782L15.5391 11.1844V13.7922H14.5125C13.8812 13.7922 13.3672 13.2782 13.3672 12.6469V4.7469C13.3672 2.58752 11.6094 0.829712 9.45 0.829712C8.48594 0.829712 7.60156 1.18284 6.91875 1.76252C6.23438 1.18127 5.35313 0.829712 4.3875 0.829712C2.22656 0.829712 0.46875 2.58752 0.46875 4.7469V13.1891H3.24219V4.7469C3.24219 4.11565 3.75625 3.60159 4.3875 3.60159C5.01875 3.60159 5.53281 4.11565 5.53281 4.7469V13.1891H8.30625V4.7469C8.30625 4.11565 8.82031 3.60159 9.45156 3.60159C10.0828 3.60159 10.5969 4.11565 10.5969 4.7469V12.6453C10.5969 14.8063 12.3547 16.5641 14.5141 16.5641H15.5406V19.1703L19.5312 15.1782Z" fill="#FCC21B"/>
</svg>
