<svg width="30" height="30" viewBox="0 0 30 30" fill="none" xmlns="http://www.w3.org/2000/svg">
<path d="M21.2039 10.0499C23.7281 8.15381 25.3734 5.14678 25.3734 1.75537H21.2133C21.2133 5.17959 18.4242 7.96865 15 7.96865C11.5734 7.96865 8.78672 5.17959 8.78672 1.75537H4.62891C4.62891 5.14678 6.27188 8.15381 8.79844 10.0499C6.27422 11.9437 4.62891 14.9507 4.62891 18.3444C4.62891 24.0608 9.28125 28.7155 15 28.7155C20.7188 28.7155 25.3711 24.0632 25.3711 18.3444C25.3711 14.9483 23.7281 11.9413 21.2039 10.0499ZM15 24.553C11.5734 24.553 8.78672 21.7663 8.78672 18.3421C8.78672 14.9155 11.5734 12.1288 15 12.1288C18.4242 12.1288 21.2133 14.9155 21.2133 18.3421C21.2133 21.7687 18.4242 24.553 15 24.553Z" fill="white"/>
</svg>
