<svg width="20" height="20" viewBox="0 0 20 20" fill="none" xmlns="http://www.w3.org/2000/svg">
<path d="M14.1359 6.69998C15.8188 5.43591 16.9156 3.43123 16.9156 1.17029H14.1422C14.1422 3.4531 12.2828 5.31248 10 5.31248C7.71562 5.31248 5.85781 3.4531 5.85781 1.17029H3.08594C3.08594 3.43123 4.18125 5.43591 5.86563 6.69998C4.18281 7.96248 3.08594 9.96716 3.08594 12.2297C3.08594 16.0406 6.1875 19.1437 10 19.1437C13.8125 19.1437 16.9141 16.0422 16.9141 12.2297C16.9141 9.9656 15.8188 7.96091 14.1359 6.69998ZM10 16.3687C7.71562 16.3687 5.85781 14.5109 5.85781 12.2281C5.85781 9.94373 7.71562 8.08591 10 8.08591C12.2828 8.08591 14.1422 9.94373 14.1422 12.2281C14.1422 14.5125 12.2828 16.3687 10 16.3687Z" fill="#FCC21B"/>
</svg>
