<svg width="30" height="30" viewBox="0 0 30 30" fill="none" xmlns="http://www.w3.org/2000/svg">
<path d="M27.9281 11.3788C27.9281 8.23819 25.3734 5.68116 22.2328 5.68116C21.6891 5.68116 21.1664 5.76319 20.6695 5.90616C20.3836 3.02569 17.9508 0.771002 15 0.771002C13.6289 0.771002 12.368 1.2585 11.3836 2.07178C10.3678 1.22937 9.08917 0.769163 7.76953 0.771002C4.62891 0.771002 2.07422 3.32803 2.07422 6.46631V18.5249H6.23438V6.46631C6.235 6.05936 6.39693 5.66924 6.6847 5.38148C6.97246 5.09372 7.36257 4.93178 7.76953 4.93116C8.17649 4.93178 8.5666 5.09372 8.85437 5.38148C9.14213 5.66924 9.30407 6.05936 9.30469 6.46631V18.5249H13.4648V6.46631C13.4655 6.05936 13.6274 5.66924 13.9152 5.38148C14.2029 5.09372 14.593 4.93178 15 4.93116C15.407 4.93178 15.7971 5.09372 16.0848 5.38148C16.3726 5.66924 16.5345 6.05936 16.5352 6.46631V19.9452C16.5352 20.7796 16.5352 21.7335 16.6664 22.7108C15.0633 23.6273 13.1156 24.4921 10.732 25.2796L12.0352 29.2288C14.3766 28.4554 16.4531 27.5741 18.2695 26.5757C18.3609 26.6812 18.4547 26.7866 18.5578 26.8898C20.032 28.3663 22.2258 29.0835 25.2609 29.0835V24.9233C24.143 24.9233 22.7016 24.7921 21.825 24.2108C25.9172 20.9015 27.9281 16.6499 27.9281 11.3788ZM22.2305 9.84131C23.0766 9.84131 23.7656 10.5327 23.7656 11.3788C23.7656 13.9358 23.2758 16.8679 20.693 19.6265V11.3788C20.6953 10.5327 21.3844 9.84131 22.2305 9.84131Z" fill="white"/>
</svg>
