<svg width="20" height="20" viewBox="0 0 20 20" fill="none" xmlns="http://www.w3.org/2000/svg">
<path d="M18.6188 7.58592C18.6188 5.49217 16.9156 3.78748 14.8219 3.78748C14.4594 3.78748 14.1109 3.84217 13.7797 3.93748C13.5891 2.01717 11.9672 0.514042 10 0.514042C9.08594 0.514042 8.24531 0.839042 7.58906 1.38123C6.91188 0.819624 6.05945 0.512816 5.17969 0.514042C3.08594 0.514042 1.38281 2.21873 1.38281 4.31092V12.35H4.15625V4.31092C4.15666 4.03961 4.26462 3.77954 4.45646 3.58769C4.64831 3.39585 4.90838 3.28789 5.17969 3.28748C5.45099 3.28789 5.71107 3.39585 5.90291 3.58769C6.09475 3.77954 6.20271 4.03961 6.20312 4.31092V12.35H8.97656V4.31092C8.97698 4.03961 9.08493 3.77954 9.27678 3.58769C9.46862 3.39585 9.72869 3.28789 10 3.28748C10.2713 3.28789 10.5314 3.39585 10.7232 3.58769C10.9151 3.77954 11.023 4.03961 11.0234 4.31092V13.2969C11.0234 13.8531 11.0234 14.489 11.1109 15.1406C10.0422 15.7515 8.74375 16.3281 7.15469 16.8531L8.02344 19.4859C9.58438 18.9703 10.9688 18.3828 12.1797 17.7172C12.2406 17.7875 12.3031 17.8578 12.3719 17.9265C13.3547 18.9109 14.8172 19.389 16.8406 19.389V16.6156C16.0953 16.6156 15.1344 16.5281 14.55 16.1406C17.2781 13.9344 18.6188 11.1 18.6188 7.58592ZM14.8203 6.56092C15.3844 6.56092 15.8438 7.02185 15.8438 7.58592C15.8438 9.2906 15.5172 11.2453 13.7953 13.0844V7.58592C13.7969 7.02185 14.2563 6.56092 14.8203 6.56092Z" fill="#FCC21B"/>
</svg>
